<?xml version="1.0" encoding="UTF-8"?>
<svg id="Layer_1" xmlns="http://www.w3.org/2000/svg" version="1.1" viewBox="0 0 400 141.3">
  <!-- Generator: Adobe Illustrator 29.7.0, SVG Export Plug-In . SVG Version: 2.1.1 Build 138)  -->
  <defs>
    <style>
      .st0 {
        fill: #fff;
      }

      .st1 {
        fill: #dfb674;
      }
    </style>
  </defs>
  <path class="st1" d="M87.93,115.05l-1.98-3.39h-1.31v3.39h-1.08v-8.29h2.68c.63,0,1.16.11,1.59.32.43.21.76.5.97.87.21.36.32.78.32,1.25,0,.57-.17,1.07-.49,1.51-.33.44-.82.73-1.48.87l2.08,3.47h-1.3ZM84.64,110.79h1.59c.59,0,1.03-.14,1.32-.43.29-.29.44-.68.44-1.16s-.15-.87-.43-1.14c-.29-.27-.73-.4-1.33-.4h-1.59v3.14Z"/>
  <polygon class="st1" points="95.68 107.64 95.68 110.41 98.7 110.41 98.7 111.3 95.68 111.3 95.68 114.16 99.06 114.16 99.06 115.05 94.6 115.05 94.6 106.75 99.06 106.75 99.06 107.64 95.68 107.64"/>
  <path class="st1" d="M105.67,114.84c-.43-.19-.77-.46-1.02-.81-.25-.34-.37-.74-.38-1.2h1.15c.04.39.2.72.48.98.28.27.69.4,1.23.4s.92-.13,1.22-.39c.3-.26.45-.59.45-.99,0-.32-.09-.57-.26-.77-.18-.2-.39-.35-.65-.45-.26-.1-.62-.21-1.06-.33-.55-.14-.99-.29-1.31-.43-.33-.14-.61-.37-.84-.67-.23-.31-.35-.72-.35-1.23,0-.45.11-.85.34-1.2.23-.35.55-.62.97-.81.42-.19.9-.29,1.43-.29.78,0,1.41.2,1.91.58.49.39.77.9.84,1.55h-1.19c-.04-.32-.21-.6-.5-.84-.29-.24-.68-.36-1.17-.36-.45,0-.82.12-1.11.35s-.43.56-.43.98c0,.3.08.55.26.74.17.19.38.34.63.43.25.1.6.21,1.05.34.55.15.99.3,1.32.45.33.15.62.37.86.68.24.31.36.72.36,1.24,0,.4-.11.79-.32,1.14-.22.36-.53.65-.95.87-.42.22-.92.33-1.49.33s-1.04-.1-1.47-.29"/>
  <rect class="st1" x="115.3" y="106.76" width="1.08" height="8.29"/>
  <path class="st1" d="M126.97,107.27c.66.34,1.17.82,1.52,1.44.35.63.53,1.36.53,2.21s-.18,1.58-.53,2.21c-.35.62-.86,1.1-1.52,1.43-.66.33-1.44.49-2.35.49h-2.58v-8.29h2.58c.9,0,1.69.17,2.35.51M127.07,113.31c.56-.57.84-1.36.84-2.39s-.28-1.84-.85-2.41c-.57-.58-1.38-.87-2.45-.87h-1.5v6.52h1.5c1.07,0,1.89-.28,2.45-.85"/>
  <polygon class="st1" points="135.34 107.64 135.34 110.41 138.36 110.41 138.36 111.3 135.34 111.3 135.34 114.16 138.71 114.16 138.71 115.05 134.25 115.05 134.25 106.75 138.71 106.75 138.71 107.64 135.34 107.64"/>
  <polygon class="st1" points="150.68 115.05 149.6 115.05 145.25 108.45 145.25 115.05 144.16 115.05 144.16 106.75 145.25 106.75 149.6 113.34 149.6 106.75 150.68 106.75 150.68 115.05"/>
  <path class="st1" d="M156.48,108.72c.36-.65.86-1.15,1.49-1.52.63-.36,1.33-.55,2.1-.55.9,0,1.69.22,2.37.65.67.44,1.17,1.05,1.47,1.86h-1.3c-.23-.5-.56-.88-.99-1.15-.43-.27-.95-.4-1.55-.4s-1.1.13-1.56.4c-.46.27-.82.65-1.08,1.15-.26.49-.39,1.08-.39,1.74s.13,1.24.39,1.73c.26.5.62.88,1.08,1.15.46.27.98.4,1.56.4s1.12-.13,1.55-.4c.43-.27.76-.65.99-1.15h1.3c-.31.79-.8,1.41-1.47,1.84-.67.43-1.46.65-2.37.65-.77,0-1.47-.18-2.1-.54-.63-.36-1.13-.86-1.49-1.5-.36-.64-.55-1.37-.55-2.18s.18-1.54.55-2.18"/>
  <polygon class="st1" points="170.41 107.64 170.41 110.41 173.43 110.41 173.43 111.3 170.41 111.3 170.41 114.16 173.79 114.16 173.79 115.05 169.33 115.05 169.33 106.75 173.79 106.75 173.79 107.64 170.41 107.64"/>
  <path class="st1" d="M180.4,114.84c-.43-.19-.77-.46-1.02-.81-.25-.34-.37-.74-.38-1.2h1.15c.04.39.2.72.48.98.28.27.69.4,1.23.4s.92-.13,1.22-.39c.3-.26.45-.59.45-.99,0-.32-.09-.57-.26-.77-.18-.2-.39-.35-.65-.45-.26-.1-.62-.21-1.06-.33-.55-.14-.99-.29-1.31-.43-.33-.14-.61-.37-.84-.67-.23-.31-.35-.72-.35-1.23,0-.45.11-.85.34-1.2.23-.35.55-.62.97-.81.42-.19.9-.29,1.43-.29.78,0,1.41.2,1.91.58.49.39.77.9.84,1.55h-1.19c-.04-.32-.21-.6-.5-.84-.29-.24-.68-.36-1.17-.36-.45,0-.82.12-1.11.35s-.43.56-.43.98c0,.3.08.55.26.74.17.19.38.34.63.43.25.1.6.21,1.05.34.55.15.99.3,1.32.45.33.15.62.37.86.68.24.31.36.72.36,1.24,0,.4-.11.79-.32,1.14-.22.36-.53.65-.95.87-.42.22-.92.33-1.49.33s-1.04-.1-1.47-.29"/>
  <path class="st0" d="M84.71,97.8c1.47-.76,2.55-2.68,2.55-4.65v-36.83c-1.02-1.85-2.29-3.57-3.7-4.27v-.13h10.26l17.97,33.58,15.04-33.58h9.91v.13c-1.59.7-2.61,2.55-2.61,4.65v36.45c0,2.1,1.02,3.95,2.61,4.65v.13h-11.79v-.13c1.53-.76,2.61-2.68,2.61-4.65v-37.98l-17.01,37.98h-2.07l-19.12-35.56v35.56c0,2.1,1.08,3.95,2.68,4.65v.13h-7.33v-.13Z"/>
  <path class="st0" d="M164.77,51.93c13.81,0,21.24,9.04,21.24,22.91s-7.43,23.1-21.24,23.1-21.36-9.23-21.36-23.1,7.49-22.91,21.36-22.91M164.77,96c9.97,0,14.86-8.1,14.86-20.57s-4.89-21.51-14.86-21.51-14.98,9.03-14.98,21.51,4.95,20.57,14.98,20.57"/>
  <path class="st0" d="M192.82,97.8c1.53-.76,2.55-2.68,2.55-4.65v-36.83c-.96-1.85-3.19-3.57-4.59-4.27v-.13h10.59l23.13,34.28v-29.5c0-1.98-1.02-3.89-2.55-4.65v-.13h7.3v.13c-1.59.7-2.61,2.55-2.61,4.65v41.23h-2.2l-26.95-39.89v35.11c0,2.1,1.02,3.95,2.61,4.65v.13h-7.27v-.13Z"/>
  <path class="st0" d="M270.02,93.15l-13.44-36.45c-1.09-2.93-2.81-4.78-3.89-4.78h-7.04c1.58.9,2.64,2.5,2.64,4.34,0,.68-.14,1.33-.41,1.92l-11.92,34.97c-.64,1.85-1.62,3.89-3.16,4.65v.13h6.18v-.13c-1.94-.88-.8-4.08-.61-4.65l3.46-10.29h17.15l4.08,10.29c.19.64,1.28,3.19-1.27,4.65v.13h11.53v-.13c-1.59-1.21-2.49-2.55-3.31-4.65M242.54,80.76l7.6-22.27,8.6,22.27h-16.2Z"/>
  <path class="st0" d="M314.71,97.93h-.76c-9.81,0-9.81-.06-12.36-4.78l-8.09-13.52h-6.5v15.49c0,1.08,1.21,2.17,3.06,2.61v.19h-12.17v-.19c1.53-.45,2.55-1.53,2.55-2.61v-41.16c0-.89-1.02-1.59-2.55-1.91v-.13h14.91c10.96,0,18.16,5.16,18.16,12.94,0,6.37-3.95,10.96-10.32,12.62l8.35,15.67c.89,1.59,2.99,4.21,5.73,4.65v.13ZM303.75,64.86c0-7.39-4.46-11.16-11.02-11.16h-3.06c-2.04,0-2.68,1.02-2.68,2.61v21.22h8.03c6.88,0,8.73-6.82,8.73-12.68"/>
  <path class="st0" d="M356.94,62.2l-3.78,5.39c-.56-8.17-6.13-14.29-13.13-14.29-7.99,0-13.75,8.22-13.75,20.85s5.76,21.24,14.98,21.24c6.44,0,12.07-4.15,15.42-9.97-1.98,5.14-9.29,12.51-18.89,12.51-10.9,0-18.58-9.66-18.58-22.23,0-14.24,9.78-23.78,20.62-23.78,7.43,0,13.93,4.46,17.09,10.28"/>
  <path class="st0" d="M363.51,97.8c1.53-.76,2.55-2.68,2.55-4.65v-36.45c0-1.98-1.02-3.89-2.55-4.65v-.13h11.79v.13c-1.59.7-2.68,2.55-2.68,4.65v17.62h17.84v-17.62c0-1.98-1.02-3.89-2.55-4.65v-.13h11.79v.13c-1.59.7-2.68,2.55-2.68,4.65v36.45c0,2.1,1.08,3.95,2.68,4.65v.13h-11.79v-.13c1.53-.76,2.55-2.68,2.55-4.65v-16.73h-17.84v16.73c0,2.1,1.08,3.95,2.68,4.65v.13h-11.79v-.13Z"/>
  <path class="st1" d="M37.13,140.54l8.34-7.34c1.61-1.42,2.53-3.46,2.53-5.6V52.69l-8.34,7.34c-1.61,1.42-2.53,3.46-2.53,5.6v74.91Z"/>
  <path class="st1" d="M55.7,126.71l8.17-7.19c1.72-1.51,2.7-3.69,2.7-5.97v-44.94l-8.17,7.19c-1.72,1.51-2.7,3.69-2.7,5.97v44.94Z"/>
  <path class="st1" d="M29.73,140.54l-8.34-7.34c-1.61-1.42-2.53-3.46-2.53-5.6V52.69l8.34,7.34c1.61,1.42,2.53,3.46,2.53,5.6v74.91Z"/>
  <path class="st1" d="M11.17,126.71l-8.17-7.19c-1.72-1.51-2.7-3.69-2.7-5.97v-44.94l8.17,7.19c1.72,1.51,2.7,3.69,2.7,5.97v44.94Z"/>
  <path class="st1" d="M37.13,88.61l8.34-7.34c1.61-1.42,2.53-3.46,2.53-5.6V.76l-8.34,7.34c-1.61,1.42-2.53,3.46-2.53,5.6v74.91Z"/>
  <path class="st1" d="M55.7,73.51l8.17-7.19c1.72-1.51,2.7-3.69,2.7-5.97V15.4l-8.17,7.19c-1.72,1.51-2.7,3.69-2.7,5.97v44.94Z"/>
  <path class="st1" d="M29.73,88.61l-8.34-7.34c-1.61-1.42-2.53-3.46-2.53-5.6V.76l8.34,7.34c1.61,1.42,2.53,3.46,2.53,5.6v74.91Z"/>
  <path class="st1" d="M11.17,73.51l-8.17-7.19c-1.72-1.51-2.7-3.69-2.7-5.97V15.4l8.17,7.19c1.72,1.51,2.7,3.69,2.7,5.97v44.94Z"/>
  <rect class="st1" x="190.21" y="114.4" width="209.49" height=".64"/>
  <path class="st0" d="M86.27,42.55c-.83-.38-1.49-.91-1.96-1.59-.48-.68-.73-1.44-.76-2.28h1.76c.08.81.44,1.52,1.07,2.13.63.61,1.56.92,2.79.92,1.13,0,2.02-.29,2.68-.87.66-.58.99-1.31.99-2.2,0-.71-.18-1.29-.55-1.72-.36-.44-.82-.76-1.36-.98-.54-.21-1.29-.45-2.24-.7-1.11-.3-1.99-.6-2.64-.88-.65-.29-1.21-.73-1.67-1.33-.46-.6-.69-1.42-.69-2.45,0-.86.22-1.62.67-2.3.44-.67,1.07-1.2,1.88-1.58.81-.38,1.74-.57,2.78-.57,1.54,0,2.78.38,3.73,1.13.94.75,1.49,1.73,1.63,2.92h-1.81c-.11-.68-.48-1.29-1.12-1.82-.63-.53-1.49-.8-2.57-.8-1,0-1.83.27-2.5.8-.67.53-1,1.26-1,2.18,0,.7.18,1.26.55,1.69.36.43.82.75,1.37.98.55.22,1.29.46,2.23.71,1.08.3,1.95.6,2.62.89.67.29,1.23.74,1.69,1.34.46.6.69,1.41.69,2.43,0,.78-.21,1.52-.62,2.21-.41.7-1.02,1.26-1.83,1.69-.81.43-1.78.64-2.9.64s-2.06-.19-2.89-.57"/>
  <path class="st0" d="M102.19,26.31v10.47c0,1.65.39,2.87,1.18,3.67.79.79,1.86,1.19,3.23,1.19s2.43-.39,3.2-1.18,1.16-2.01,1.16-3.68v-10.47h1.67v10.45c0,2.11-.56,3.7-1.68,4.76-1.12,1.06-2.57,1.59-4.37,1.59s-3.25-.53-4.37-1.59c-1.12-1.06-1.68-2.65-1.68-4.76v-10.45h1.67Z"/>
  <polygon class="st0" points="131.73 42.95 130.06 42.95 120.85 28.96 120.85 42.95 119.18 42.95 119.18 26.31 120.85 26.31 130.06 40.29 130.06 26.31 131.73 26.31 131.73 42.95"/>
  <path class="st0" d="M138.68,30.23c.71-1.29,1.69-2.3,2.93-3.02,1.24-.72,2.62-1.08,4.14-1.08,1.86,0,3.45.44,4.77,1.32,1.32.88,2.29,2.12,2.89,3.73h-1.95c-.48-1.13-1.2-2.01-2.18-2.64-.98-.63-2.15-.95-3.53-.95-1.22,0-2.32.29-3.3.86-.98.57-1.74,1.39-2.3,2.46-.56,1.07-.83,2.31-.83,3.73s.28,2.65.83,3.71c.56,1.06,1.32,1.88,2.3,2.45.98.57,2.07.86,3.3.86,1.38,0,2.56-.31,3.53-.94.98-.63,1.7-1.49,2.18-2.61h1.95c-.6,1.59-1.57,2.82-2.9,3.69-1.33.87-2.92,1.31-4.76,1.31-1.52,0-2.9-.36-4.14-1.08-1.24-.72-2.21-1.73-2.93-3.01-.71-1.29-1.07-2.74-1.07-4.38s.36-3.1,1.07-4.39"/>
  <rect class="st0" x="159.58" y="26.31" width="1.67" height="16.64"/>
  <polygon class="st0" points="177.62 26.31 177.62 27.69 173 27.69 173 42.95 171.34 42.95 171.34 27.69 166.69 27.69 166.69 26.31 177.62 26.31"/>
  <polygon class="st0" points="194.12 26.31 188.78 36.48 188.78 42.95 187.12 42.95 187.12 36.48 181.74 26.31 183.62 26.31 187.95 34.95 192.26 26.31 194.12 26.31"/>
  <polygon class="st0" points="199.62 26.31 201.54 26.31 199.45 31.46 198.23 31.46 199.62 26.31"/>
  <path class="st0" d="M209.1,42.55c-.83-.38-1.49-.91-1.96-1.59-.48-.68-.73-1.44-.76-2.28h1.76c.08.81.44,1.52,1.07,2.13.63.61,1.56.92,2.79.92,1.13,0,2.02-.29,2.68-.87.66-.58.99-1.31.99-2.2,0-.71-.18-1.29-.55-1.72s-.82-.76-1.36-.98c-.54-.21-1.29-.45-2.24-.7-1.11-.3-1.99-.6-2.64-.88-.65-.29-1.21-.73-1.67-1.33-.46-.6-.69-1.42-.69-2.45,0-.86.22-1.62.67-2.3s1.07-1.2,1.88-1.58c.81-.38,1.74-.57,2.79-.57,1.54,0,2.78.38,3.73,1.13.94.75,1.49,1.73,1.63,2.92h-1.81c-.11-.68-.48-1.29-1.12-1.82-.63-.53-1.49-.8-2.57-.8-1,0-1.83.27-2.5.8-.67.53-1,1.26-1,2.18,0,.7.18,1.26.55,1.69.36.43.82.75,1.37.98.55.22,1.29.46,2.23.71,1.08.3,1.95.6,2.62.89.67.29,1.23.74,1.69,1.34.46.6.69,1.41.69,2.43,0,.78-.21,1.52-.62,2.21-.41.7-1.02,1.26-1.83,1.69-.81.43-1.78.64-2.9.64s-2.06-.19-2.89-.57"/>
</svg>